<?xml version="1.0" encoding="UTF-8"?>
<svg version="1.1" id="Layer_1" xmlns="http://www.w3.org/2000/svg" xmlns:xlink="http://www.w3.org/1999/xlink" x="0px" y="0px"
     viewBox="0 0 512 512" style="enable-background:new 0 0 512 512;" xml:space="preserve">
  <circle style="fill:#EAF2FF;" cx="256" cy="256" r="256"/>
  <circle style="fill:#C9DBFF;" cx="256" cy="256" r="220"/>

  <!-- antenna -->
  <rect x="246" y="98" width="20" height="54" rx="10" style="fill:#5B6470;"/>
  <circle cx="256" cy="82" r="24" style="fill:#FF6B6B;"/>

  <!-- head -->
  <rect x="126" y="140" width="260" height="190" rx="56" style="fill:#6C7A89;"/>
  <rect x="146" y="160" width="220" height="150" rx="42" style="fill:#BFE8FF;"/>

  <!-- eyes -->
  <circle cx="206" cy="235" r="28" style="fill:#2F80ED;"/>
  <circle cx="306" cy="235" r="28" style="fill:#2F80ED;"/>
  <circle cx="197" cy="226" r="10" style="fill:#FFFFFF;"/>
  <circle cx="297" cy="226" r="10" style="fill:#FFFFFF;"/>

  <!-- mouth -->
  <rect x="196" y="270" width="120" height="24" rx="12" style="fill:#5B6470;"/>
  <rect x="214" y="276" width="12" height="12" rx="3" style="fill:#EAF2FF;"/>
  <rect x="238" y="276" width="12" height="12" rx="3" style="fill:#EAF2FF;"/>
  <rect x="262" y="276" width="12" height="12" rx="3" style="fill:#EAF2FF;"/>
  <rect x="286" y="276" width="12" height="12" rx="3" style="fill:#EAF2FF;"/>

  <!-- ears -->
  <rect x="96" y="198" width="30" height="72" rx="15" style="fill:#5B6470;"/>
  <rect x="386" y="198" width="30" height="72" rx="15" style="fill:#5B6470;"/>

  <!-- body -->
  <rect x="156" y="334" width="200" height="92" rx="28" style="fill:#6C7A89;"/>
  <rect x="182" y="360" width="56" height="16" rx="8" style="fill:#BFE8FF;"/>
  <rect x="274" y="360" width="56" height="16" rx="8" style="fill:#BFE8FF;"/>

  <!-- neck -->
  <rect x="220" y="320" width="18" height="24" rx="8" style="fill:#5B6470;"/>
  <rect x="274" y="320" width="18" height="24" rx="8" style="fill:#5B6470;"/>
</svg>
